<svg xmlns="http://www.w3.org/2000/svg" fill-rule="evenodd" stroke-miterlimit="10" clip-rule="evenodd" viewBox="0 0 466 399" id="websitebuilder"><path fill="none" d="M.478.624h465.509v398.005H.478z"></path><clipPath id="a"><path d="M.478.624h465.509v398.005H.478z" fill="#cccdff" class="color000000 svgShape"></path></clipPath><g clip-path="url(#a)" fill="#cccdff" class="color000000 svgShape"><path fill="#595bd4" fill-opacity=".161" d="M467.516 140.909c0-8.279-6.722-15-15-15h-281.8c-8.279 0-15 6.721-15 15v218.226c0 8.278 6.721 15 15 15h281.8c8.278 0 15-6.722 15-15V140.909Z" class="colorcce6ff svgShape"></path><path fill="url(#b)" d="M451.943 126.065c0-8.279-6.721-15-15-15h-278.47c-8.279 0-15 6.721-15 15v215.52c0 8.279 6.721 15 15 15h278.47c8.279 0 15-6.721 15-15v-215.52Z"></path><path fill="url(#c)" d="M158.097 158.194h275.859v173.532a9.593 9.593 0 0 1-9.593 9.593H171.288c-7.285 0-13.191-5.906-13.191-13.191V158.194Z"></path><clipPath id="b"><path d="M158.097 158.194h275.859v173.532a9.593 9.593 0 0 1-9.593 9.593H171.288c-7.285 0-13.191-5.906-13.191-13.191V158.194Z" fill="#cccdff" class="color000000 svgShape"></path></clipPath><g clip-path="url(#b)" fill="#cccdff" class="color000000 svgShape"><path fill="#00bc21" d="M172.38 170.732h35.864v40.963H172.38z" class="color0bbc00 svgShape"></path><path fill="#e5e5ff" d="M341.244 174.076h81.748v38.157h-81.748zM173.82 283.196h71.031v46.614H173.82z" class="colore5f1ff svgShape"></path><path fill="url(#e)" d="M367.628 281.191h55.364v46.886h-55.364z"></path><path fill="#e5e5ff" d="M263.753 227.252h61.458v13.7h-61.458z" class="colore5f1ff svgShape"></path></g><circle cx="194.543" cy="133.66" r="7.856" fill="#167ffc" class="color0084ff svgShape"></circle><circle cx="171.93" cy="133.66" r="7.856" fill="#55a3ff" class="color55d7ff svgShape"></circle><circle cx="217.087" cy="133.66" r="7.856" fill="#00bc21" class="color0bbc00 svgShape"></circle><path fill="#e5e5ff" d="M385.976 132.409c0-3.588-2.913-6.5-6.5-6.5h-76.933a6.503 6.503 0 0 0-6.5 6.5v2.607c0 3.588 2.913 6.5 6.5 6.5h76.933c3.587 0 6.5-2.912 6.5-6.5v-2.607ZM435.919 132.353a6.551 6.551 0 0 0-6.548-6.548h-11.459a6.551 6.551 0 0 0-6.548 6.548v2.615a6.551 6.551 0 0 0 6.548 6.548h11.459a6.551 6.551 0 0 0 6.548-6.548v-2.615Z" class="colore5f1ff svgShape"></path><path fill="#595bd4" fill-opacity=".522" d="M66.953 344.063v1.654l-18.482 29.929h-8.8l14.081-58.977 13.201-2.617v24.517h44.931v-22.885l9.758-4.418 6.508 17.907 11.265 46.502h-8.881l-18.65-29.766v-1.846H66.953ZM75.043 25.71h19.978l17.757 48.672v224.352H75.043V25.71Z" class="colorcce6ff svgShape"></path><path fill="#595bd4" fill-opacity=".349" d="M33.979 83.422h264.145v19.977H33.979z" class="colorcce6ff svgShape"></path><path fill="none" stroke="#cccdff" stroke-width="6" d="M242.255 239.149h99.367v65.932h-99.367z" class="colorStrokecce6ff svgStroke"></path><path fill="#595bd4" fill-rule="nonzero" d="M361.927 240.05v82.703H238.57v-81.029l61.167-127.9 62.19 126.226Zm-117.357 3.035v73.668h111.357v-75.305l-56.109-113.885-55.248 115.522Z" class="colorcce6ff svgShape"></path><path fill="#595bd4" d="M40.471 372.646h-8.8l14.081-58.977 13.201 2.64v19.26h44.931v-18.923l13.322-2.627 14.209 58.656h-8.881l-18.65-29.766v-1.847H58.953v1.655l-18.482 29.929Z" class="colorcce6ff svgShape"></path><path fill="#167ffc" d="M235.324 228.044h102.107v67.701H235.324z" class="color0084ff svgShape"></path><path fill="#595bd4" fill-rule="nonzero" d="M65.209 20.447 28.246 75.903l-4.992-3.328 36.963-55.456 4.992 3.328zM279.02 79.442l-1.747 5.74L82.961 26.054l1.747-5.74L279.02 79.442z" class="colorcce6ff svgShape"></path><path fill="#55a3ff" fill-rule="nonzero" d="M350.173 225.554v86.449h-127.88V227.31l63.412-133.773 64.468 132.017zm-121.88 3.106v77.343h115.88v-79.062l-58.388-119.566-57.492 121.285zM65.662 86.078a3.933 3.933 0 0 1 1.652.842l35.203 35.211c1.989 2.33 1.171 2.87 0 4.242l-31.322 31.328 30.442 30.449s1.768 2.171 0 4.242L71.195 222.84l29.562 29.569s1.768 2.171 0 4.242L68.194 289.22c-1.765 1.508-5.121.641-5.121-2.121 0-.78.348-1.5.878-2.121l30.442-30.448-29.562-29.568s-1.768-2.172 0-4.243l30.442-30.448-30.442-30.448s-1.768-2.172 0-4.243l31.322-31.328-33.082-33.089s-1.049-1.279-.841-2.591c.241-1.524 1.655-2.634 3.432-2.494z" class="color55d7ff svgShape"></path><path fill="#55a3ff" fill-rule="nonzero" d="m104.273 93.264-33.257 33.121 31.487 31.36c.889 1.036.775 1.206.846 1.655.136.855.161 1.421-.846 2.596l-30.602 30.478 30.602 30.478s1.777 2.178 0 4.251L72.786 256.8l30.602 30.478-4.234 4.251-32.736-32.603s-1.778-2.178 0-4.251l29.717-29.597-30.602-30.479s-1.777-2.178 0-4.251l30.602-30.478-31.487-31.359s-1.777-2.178 0-4.251l35.391-35.248 4.234 4.252Z" class="color55d7ff svgShape"></path><path fill="#ffffff" fill-opacity=".502" d="M71.714 24.6h11.099v256.376H71.714z" class="colorffffff svgShape"></path><path fill="#595bd4" fill-rule="nonzero" d="m86.475 24.064 17.424 50.479 1.937 216.239H60.073V13.501h25.522l.88 10.563Zm-17.402-1.563v259.281h27.682l-1.842-205.69-17.314-50.157-.286-3.434h-8.24Z" class="colorcce6ff svgShape"></path><path fill="#595bd4" fill-rule="nonzero" d="m282.586 74.543 18.626 21.702H23.99V74.239l258.596.304ZM32.99 87.245h248.637l-3.181-3.706L32.99 83.25v3.995Z" class="colorcce6ff svgShape"></path><path fill="#595bd4" d="M122.559 286.849c0-2.207-1.792-4-4-4H41.938c-1.655 0-3 1.344-3 3v22.336c0 4.968 4.033 9 9 9h65.621c4.967 0 9-4.032 9-9v-21.336Z" class="colorcce6ff svgShape"></path><path fill="#ffffff" fill-opacity=".49" d="M114.244 291.576c0-1.379-1.121-2.5-2.5-2.5h-62c-1.38 0-2.5 1.121-2.5 2.5v12c0 3.036 2.464 5.5 5.5 5.5h56c3.035 0 5.5-2.464 5.5-5.5v-12Z" class="colorffffff svgShape"></path></g><defs><linearGradient id="b" x2="1" gradientTransform="rotate(90 123.454 321.16) scale(318.675)" gradientUnits="userSpaceOnUse"><stop offset="0" stop-color="#cccdff" class="stopColorcce6ff svgShape"></stop><stop offset="1" stop-color="#1d84ff" class="stopColor1d98ff svgShape"></stop></linearGradient><linearGradient id="c" x2="1" gradientTransform="rotate(90 72.17 354.418) scale(196.543)" gradientUnits="userSpaceOnUse"><stop offset="0" stop-color="#ffffff" class="stopColorffffff svgShape"></stop><stop offset="1" stop-color="#d0d1fc" class="stopColord0e4fc svgShape"></stop></linearGradient><linearGradient id="e" x2="1" gradientTransform="rotate(-90 358.574 -35.536) scale(76.8497)" gradientUnits="userSpaceOnUse"><stop offset="0" stop-color="#00bc21" class="stopColor0bbc00 svgShape"></stop><stop offset="1" stop-color="#53d86a" class="stopColor79df68 svgShape"></stop></linearGradient></defs></svg>